#!OML:ASF F:\VICON\USERDATA\INSTALL\rory3\rory3.ASF
:FULLY-SPECIFIED
:DEGREES
76
root -2.8614 16.4409 42.6038 -164.902 -8.49874 -175.056
lowerback -11.9496 1.45483 4.54451
upperback -5.68298 0.726896 1.7315
thorax 0.80193 0.00975009 -0.671024
lowerneck -14.1372 -3.00682 -8.6488
upperneck 34.4277 -7.10681 5.32371
head 14.7644 -4.5524 2.24233
rclavicle -1.59494e-014 -1.94809e-014
rhumerus -36.037 5.60301 -90.2539
rradius 27.734
rwrist 13.2466
rhand -19.0766 -50.4444
rfingers 7.12502
rthumb 7.23125 -80.3008
lclavicle -1.59494e-014 -1.94809e-014
lhumerus -37.7035 -3.57742 89.1627
lradius 31.9598
lwrist 8.61585
lhand -32.1766 -30.4692
lfingers 7.12502
lthumb -5.4192 -0.55847
rfemur -32.1272 8.22055 25.7213
rtibia 42.6324
rfoot -23.0953 -20.3095
rtoes -0.435785
lfemur -33.131 -8.89254 -15.4201
ltibia 45.1445
lfoot -27.1667 16.2281
ltoes 6.82643
77
root -2.92291 16.4323 42.5661 -164.96 -5.90969 -174.349
lowerback -13.3682 2.52441 5.26992
upperback -4.72102 1.96365 1.89208
thorax 2.64481 0.68596 -0.698455
lowerneck -14.4672 -3.26309 -8.90113
upperneck 33.8667 -7.14753 5.30928
head 14.5978 -4.52325 2.27726
rclavicle 2.66085e-014 3.97569e-015
rhumerus -34.4619 5.49159 -89.1211
rradius 26.2815
rwrist 15.5748
rhand -20.3918 -48.795
rfingers 7.12502
rthumb 5.96155 -78.6911
lclavicle 2.66085e-014 3.97569e-015
lhumerus -36.5448 -2.44249 88.7885
lradius 31.797
lwrist 9.05355
lhand -31.0213 -31.0352
lfingers 7.12502
lthumb -4.30369 -1.09898
rfemur -32.1648 8.02208 25.9657
rtibia 42.6602
rfoot -22.8583 -17.9808
rtoes -1.6911
lfemur -32.5385 -8.07256 -15.4382
ltibia 45.2861
lfoot -27.8333 17.6512
ltoes 7.62387
78
root -2.93279 16.4218 42.5935 -164.166 -6.07327 -174.27
lowerback -13.0036 2.55776 5.41424
upperback -5.35323 1.96775 1.87112
thorax 1.79195 0.626274 -0.820452
lowerneck -14.409 -3.2004 -9.03064
upperneck 34.0047 -7.11743 5.43535
head 14.6564 -4.5288 2.35616
rclavicle 5.14899e-015 3.77691e-015
rhumerus -34.3598 4.7062 -88.2291
rradius 24.985
rwrist 17.9564
rhand -21.7343 -45.8619
rfingers 7.12502
rthumb 4.6653 -75.7905
lclavicle 5.14899e-015 3.77691e-015
lhumerus -37.1901 -1.54484 88.0941
lradius 32.0308
lwrist 9.31949
lhand -30.5507 -30.9782
lfingers 7.12502
lthumb -3.84926 -1.03319
rfemur -33.2784 7.78019 25.9192
rtibia 42.7992
rfoot -22.8391 -17.7787
rtoes -1.53807
lfemur -33.7405 -7.89232 -15.261
ltibia 45.4749
lfoot -27.4567 17.2496
ltoes 7.51113
79
root -2.94913 16.4158 42.5547 -164.863 -7.00023 -174.555
lowerback -12.2617 2.12822 5.25174
upperback -5.37166 1.50707 1.88837
thorax 1.34228 0.404921 -0.79528
lowerneck -14.3033 -3.12427 -9.15094
upperneck 34.1681 -7.07591 5.52124
head 14.7123 -4.53953 2.41929
rclavicle -2.3351e-014 -3.79679e-014
rhumerus -34.2972 4.84351 -87.8756
rradius 25.8992
rwrist 14.4195
rhand -17.766 -51.1547
rfingers 7.12502
rthumb 8.49613 -80.9638
lclavicle -2.3351e-014 -3.79679e-014
lhumerus -37.9804 -0.733408 87.4848
lradius 32.3347
lwrist 9.29542
lhand -30.9776 -30.3385
lfingers 7.12502
lthumb -4.26146 -0.401403
rfemur -32.2411 7.48724 25.865
rtibia 42.8822
rfoot -23.3132 -18.5234
rtoes -1.45369
lfemur -32.9281 -8.42957 -15.5111
ltibia 45.5214
lfoot -27.6178 16.7319
ltoes 7.61011
80
root -2.97397 16.4081 42.535 -164.952 -7.0641 -174.364
lowerback -11.6953 2.24483 5.59069
upperback -5.69345 1.65514 1.82689
thorax 0.717433 0.442019 -1.04399
lowerneck -14.0131 -3.14673 -9.12
upperneck 34.3837 -7.27772 5.55967
head 14.7665 -4.65674 2.39522
rclavicle 7.11587e-015 -9.14409e-015
rhumerus -34.4706 4.35532 -87.2467
rradius 25.6829
rwrist 14.2078
rhand -17.6297 -51.1993
rfingers 7.12502
rthumb 8.62765 -81.003
lclavicle 7.11587e-015 -9.14409e-015
lhumerus -38.8767 -0.628171 87.0549
lradius 32.6921
lwrist 9.57062
lhand -32.1732 -29.3102
lfingers 7.12502
lthumb -5.41599 0.600561
rfemur -32.1372 7.04384 26.082
rtibia 43.0392
rfoot -23.3377 -18.3564
rtoes -2.1982
lfemur -32.7801 -8.5417 -15.3761
ltibia 45.5828
lfoot -27.8029 16.7242
ltoes 7.77749
81
root -2.98869 16.3983 42.5046 -165.084 -6.70391 -174.468
lowerback -12.3396 2.38778 5.29033
upperback -5.1742 1.86051 1.81244
thorax 1.61217 0.599331 -0.842984
lowerneck -14.1345 -3.35526 -9.11399
upperneck 34.1343 -7.47955 5.53977
head 14.6994 -4.7088 2.35218
rclavicle -3.19344e-014 3.57812e-014
rhumerus -33.3819 3.85199 -86.3683
rradius 25.4794
rwrist 13.6661
rhand -17.9806 -52.1615
rfingers 7.12502
rthumb 8.28906 -81.9789
lclavicle -3.19344e-014 3.57812e-014
lhumerus -38.5565 -0.277254 86.6475
lradius 32.7572
lwrist 9.80931
lhand -32.9836 -28.7323
lfingers 7.12502
lthumb -6.19836 1.15697
rfemur -31.9838 7.40415 25.8711
rtibia 43.2182
rfoot -23.4213 -18.5072
rtoes -2.52995
lfemur -32.4127 -8.50458 -15.6238
ltibia 45.5647
lfoot -27.8967 16.9245
ltoes 7.7371
82
root -3.00859 16.3888 42.4803 -165.253 -6.43587 -174.483
lowerback -13.6568 2.4069 4.93719
upperback -4.05839 1.8696 2.087
thorax 3.47404 0.697333 -0.303482
lowerneck -14.7931 -3.68174 -9.40917
upperneck 33.5316 -7.5287 5.52604
head 14.5944 -4.66405 2.38734
rclavicle -1.09953e-014 9.74045e-015
rhumerus -31.3428 3.58817 -85.0629
rradius 24.2887
rwrist 15.3347
rhand -22.1278 -48.738
rfingers 7.12502
rthumb 4.28536 -78.6746
lclavicle -1.09953e-014 9.74045e-015
lhumerus -37.2373 1.04237 86.2112
lradius 32.3923
lwrist 9.83518
lhand -32.2472 -29.7082
lfingers 7.12502
lthumb -5.48739 0.200768
rfemur -31.8191 7.599 25.7912
rtibia 43.4299
rfoot -23.435 -18.6648
rtoes -3.30303
lfemur -32.0948 -8.35565 -15.8014
ltibia 45.6314
lfoot -27.9417 16.9162
ltoes 7.71364
83
root -3.03182 16.3805 42.4643 -165.283 -6.44011 -174.495
lowerback -13.4126 2.40108 4.99958
upperback -4.02375 1.87917 2.09629
thorax 3.37983 0.705514 -0.33343
lowerneck -15.0106 -3.7773 -9.5812
upperneck 33.5353 -7.63371 5.67932
head 14.6735 -4.69762 2.45815
rclavicle 2.02947e-014 2.0276e-014
rhumerus -30.584 2.998 -84.153
rradius 24.4136
rwrist 13.8979
rhand -21.0044 -49.5263
rfingers 7.12502
rthumb 5.37007 -79.4382
lclavicle 2.02947e-014 2.0276e-014
lhumerus -37.4322 2.02492 85.3746
lradius 32.1633
lwrist 10.1951
lhand -30.8096 -31.1261
lfingers 7.12502
lthumb -4.0993 -1.18578
rfemur -31.8517 7.35065 25.769
rtibia 43.7047
rfoot -23.4251 -18.6495
rtoes -4.10232
lfemur -32.0371 -8.30438 -15.9061
ltibia 45.7315
lfoot -28.0049 16.752
ltoes 7.56717
